<svg width="32" height="32" viewBox="0 0 32 32" fill="none" xmlns="http://www.w3.org/2000/svg">
<g clip-path="url(#clip0_106_88)">
<path d="M16 19.8608C21.1478 19.8608 25.3565 15.6522 25.3565 10.4695C25.3565 5.25215 21.1478 1.04346 16 1.04346C10.8522 1.04346 6.64348 5.25215 6.64348 10.4348C6.64348 15.6522 10.8522 19.8608 16 19.8608ZM16 3.82607C19.6174 3.82607 22.5739 6.78259 22.5739 10.4348C22.5739 14.0869 19.6174 17.0435 16 17.0435C12.3826 17.0435 9.42609 14.0869 9.42609 10.4348C9.42609 6.78259 12.3826 3.82607 16 3.82607ZM20.3478 20.7652C19.8957 20.6261 19.3739 20.7304 19.0261 21.0435L16 23.6174L12.9739 21.0435C12.5913 20.7304 12.1043 20.6261 11.6522 20.7652C9.70435 21.3913 0 24.7304 0 29.5652C0 30.3304 0.626087 30.9565 1.3913 30.9565H30.6087C31.3739 30.9565 32 30.3304 32 29.5652C32 24.7304 22.2957 21.3913 20.3478 20.7652ZM3.51304 28.1739C5.04348 26.5391 8.73044 24.7304 11.7913 23.6869L15.0957 26.5043C15.6174 26.9565 16.3826 26.9565 16.9043 26.5043L20.2087 23.6869C23.2696 24.7652 26.9565 26.5739 28.487 28.1739H3.51304Z" fill="#B50E32"/>
</g>
<defs>
<clipPath id="clip0_106_88">
<rect width="32" height="32" fill="white"/>
</clipPath>
</defs>
</svg>
