<svg width="40" height="40" viewBox="0 0 40 40" fill="none" xmlns="http://www.w3.org/2000/svg">
<g clip-path="url(#clip0_107_153)">
<path d="M20 3.60368C25.3402 3.60368 25.9727 3.624 28.0816 3.72022C30.0316 3.80922 31.0906 4.13503 31.7954 4.40885C32.7289 4.77166 33.3952 5.20513 34.095 5.90496C34.7949 6.60478 35.2283 7.2711 35.5911 8.20457C35.865 8.9094 36.1908 9.96838 36.2798 11.9183C36.376 14.0273 36.3963 14.6598 36.3963 20C36.3963 25.3403 36.376 25.9728 36.2798 28.0817C36.1908 30.0317 35.865 31.0907 35.5911 31.7955C35.2283 32.729 34.7949 33.3953 34.095 34.0951C33.3952 34.7949 32.7289 35.2284 31.7954 35.5911C31.0906 35.865 30.0316 36.1909 28.0816 36.2799C25.973 36.3761 25.3405 36.3964 20 36.3964C14.6594 36.3964 14.0269 36.3761 11.9183 36.2799C9.9683 36.1909 8.90932 35.865 8.20457 35.5911C7.27102 35.2284 6.6047 34.7949 5.90488 34.0951C5.20506 33.3953 4.77158 32.729 4.40885 31.7955C4.13496 31.0907 3.80914 30.0317 3.72014 28.0818C3.62392 25.9728 3.6036 25.3403 3.6036 20C3.6036 14.6598 3.62392 14.0273 3.72014 11.9184C3.80914 9.96838 4.13496 8.9094 4.40885 8.20457C4.77158 7.2711 5.20506 6.60478 5.90488 5.90496C6.6047 5.20513 7.27102 4.77166 8.20457 4.40885C8.90932 4.13503 9.9683 3.80922 11.9182 3.72022C14.0272 3.624 14.6597 3.60368 20 3.60368ZM20 0C14.5682 0 13.8872 0.0230231 11.754 0.120355C9.62518 0.217529 8.17139 0.555572 6.89916 1.05001C5.58398 1.56113 4.46863 2.24499 3.35677 3.35685C2.24491 4.46871 1.56105 5.58406 1.04993 6.89924C0.555493 8.17147 0.21745 9.62526 0.120276 11.7541C0.0229437 13.8872 0 14.5683 0 20C0 25.4318 0.0229437 26.1128 0.120276 28.246C0.21745 30.3748 0.555493 31.8286 1.04993 33.1008C1.56105 34.4159 2.24491 35.5314 3.35677 36.6432C4.46863 37.7551 5.58398 38.439 6.89916 38.9501C8.17139 39.4445 9.62518 39.7826 11.754 39.8797C13.8872 39.9771 14.5682 40 20 40C25.4317 40 26.1128 39.9771 28.2459 39.8797C30.3747 39.7826 31.8285 39.4445 33.1008 38.9501C34.4159 38.439 35.5313 37.7551 36.6431 36.6432C37.755 35.5314 38.4389 34.416 38.95 33.1008C39.4444 31.8286 39.7825 30.3748 39.8796 28.246C39.977 26.1128 40 25.4318 40 20C40 14.5683 39.977 13.8872 39.8796 11.7541C39.7825 9.62526 39.4444 8.17147 38.95 6.89924C38.4389 5.58406 37.755 4.46871 36.6431 3.35685C35.5313 2.24499 34.4159 1.56113 33.1008 1.05001C31.8285 0.555572 30.3747 0.217529 28.2459 0.120355C26.1128 0.0230231 25.4317 0 20 0ZM20 9.72974C14.3279 9.72974 9.72966 14.3279 9.72966 20C9.72966 25.6721 14.3279 30.2703 20 30.2703C25.6721 30.2703 30.2703 25.6721 30.2703 20C30.2703 14.3279 25.6721 9.72974 20 9.72974ZM20 26.6667C16.3181 26.6667 13.3333 23.6819 13.3333 20C13.3333 16.3182 16.3181 13.3333 20 13.3333C23.6818 13.3333 26.6667 16.3182 26.6667 20C26.6667 23.6819 23.6818 26.6667 20 26.6667ZM33.076 9.32397C33.076 10.6495 32.0015 11.724 30.676 11.724C29.3505 11.724 28.276 10.6495 28.276 9.32397C28.276 7.99848 29.3505 6.92401 30.676 6.92401C32.0015 6.92401 33.076 7.99848 33.076 9.32397Z" fill="white"/>
</g>
<defs>
<clipPath id="clip0_107_153">
<rect width="40" height="40" fill="white"/>
</clipPath>
</defs>
</svg>
