<svg width="73" height="73" viewBox="0 0 73 73" fill="none" xmlns="http://www.w3.org/2000/svg">
<circle cx="36.5" cy="36.5" r="36" fill="#D9D9D9" stroke="#B50E32"/>
<g clip-path="url(#clip0_209_4)">
<path d="M52 38.4075C52 37.6313 51.6913 36.9079 51.1604 36.3732C51.7636 35.7131 52.0698 34.827 51.9858 33.9074C51.8359 32.2657 50.3557 30.9792 48.6184 30.9792H40.6411C41.0337 29.7792 41.6667 27.5795 41.6667 25.8125C41.6667 23.0109 39.2862 20.6459 37.7917 20.6459C36.4497 20.6459 35.49 21.4002 35.4499 21.4325C35.2962 21.5565 35.2084 21.7412 35.2084 21.9375V26.3163L31.4884 34.3775L31.3334 34.455V34.2083C31.3334 33.8518 31.0441 33.5625 30.6876 33.5625H24.2291C22.4493 33.5625 21 35.0118 21 36.7917V47.125C21 48.9049 22.4493 50.3542 24.2291 50.3542H28.1041C29.5018 50.3542 30.6939 49.4629 31.1448 48.2203C32.2194 48.7732 33.6661 49.0638 34.5638 49.0638H46.42C47.8266 49.0638 49.0563 48.1144 49.3456 46.8073C49.4941 46.1343 49.4076 45.4562 49.1131 44.8672C50.0664 44.3867 50.7084 43.4037 50.7084 42.2825C50.7084 41.8253 50.6037 41.3874 50.4048 40.9909C51.358 40.5104 52 39.5274 52 38.4075ZM30.0416 47.125C30.0416 48.1932 29.171 49.0625 28.1041 49.0625H24.2291C23.1596 49.0625 22.2916 48.1932 22.2916 47.125V36.7917C22.2916 35.7234 23.1609 34.8542 24.2291 34.8542V34.8606H30.039V35.5065C30.039 35.5104 30.0416 35.513 30.0416 35.5169V47.125ZM49.2746 40.0028C49.0253 40.0312 48.8148 40.2004 48.736 40.4394C48.6572 40.677 48.7217 40.9405 48.9052 41.1124C49.2346 41.4236 49.4154 41.8396 49.4154 42.2839C49.4154 43.0976 48.8006 43.7835 47.9843 43.8765C47.735 43.9049 47.5244 44.0741 47.4457 44.3131C47.3669 44.5507 47.4314 44.8142 47.6149 44.9861C48.0411 45.3878 48.2116 45.951 48.0838 46.5283C47.9249 47.2478 47.2248 47.7709 46.4188 47.7709H34.5625C33.6028 47.7709 32.058 47.3563 31.3334 46.8177V35.903L32.2646 35.438C32.3951 35.3721 32.4997 35.2636 32.5617 35.1306L36.4367 26.7348C36.4755 26.6508 36.4961 26.5578 36.4961 26.4648V22.2953C36.7648 22.1468 37.2311 21.9439 37.7878 21.9439C38.4956 21.9439 40.3711 23.7045 40.3711 25.8189C40.3711 28.091 39.135 31.3692 39.1221 31.4015C39.0472 31.5992 39.073 31.8226 39.1945 31.997C39.3159 32.1714 39.5135 32.276 39.7266 32.276H48.6146C49.6918 32.276 50.6063 33.0459 50.6967 34.0301C50.7652 34.7664 50.4139 35.4665 49.7784 35.8579C49.5795 35.9792 49.4632 36.2001 49.4722 36.4326C49.48 36.6651 49.6143 36.8744 49.8223 36.9816C50.3674 37.2606 50.7057 37.8082 50.7057 38.4102C50.7045 39.2239 50.0896 39.9098 49.2746 40.0028Z" fill="#B50E32"/>
</g>
<defs>
<clipPath id="clip0_209_4">
<rect width="31" height="31" fill="white" transform="translate(21 20)"/>
</clipPath>
</defs>
</svg>
