<svg width="73" height="73" viewBox="0 0 73 73" fill="none" xmlns="http://www.w3.org/2000/svg">
<circle cx="36.5" cy="36.5" r="36" fill="#D9D9D9" stroke="#B50E32"/>
<g clip-path="url(#clip0_209_2)">
<path d="M37 39.8608C42.1478 39.8608 46.3565 35.6522 46.3565 30.4695C46.3565 25.2522 42.1478 21.0435 37 21.0435C31.8522 21.0435 27.6435 25.2522 27.6435 30.4348C27.6435 35.6522 31.8522 39.8608 37 39.8608ZM37 23.8261C40.6174 23.8261 43.5739 26.7826 43.5739 30.4348C43.5739 34.0869 40.6174 37.0435 37 37.0435C33.3826 37.0435 30.4261 34.0869 30.4261 30.4348C30.4261 26.7826 33.3826 23.8261 37 23.8261ZM41.3478 40.7652C40.8957 40.6261 40.3739 40.7304 40.0261 41.0435L37 43.6174L33.9739 41.0435C33.5913 40.7304 33.1043 40.6261 32.6522 40.7652C30.7043 41.3913 21 44.7304 21 49.5652C21 50.3304 21.6261 50.9565 22.3913 50.9565H51.6087C52.3739 50.9565 53 50.3304 53 49.5652C53 44.7304 43.2957 41.3913 41.3478 40.7652ZM24.513 48.1739C26.0435 46.5391 29.7304 44.7304 32.7913 43.6869L36.0957 46.5043C36.6174 46.9565 37.3826 46.9565 37.9043 46.5043L41.2087 43.6869C44.2696 44.7652 47.9565 46.5739 49.487 48.1739H24.513Z" fill="#B50E32"/>
</g>
<defs>
<clipPath id="clip0_209_2">
<rect width="32" height="32" fill="white" transform="translate(21 20)"/>
</clipPath>
</defs>
</svg>
