<svg width="28" height="27" viewBox="0 0 28 27" fill="none" xmlns="http://www.w3.org/2000/svg">
<g clip-path="url(#clip0_104_32)">
<path d="M13.8716 26.7465C6.42201 26.7465 0.385315 20.7887 0.385315 13.4366C0.385315 6.0845 6.42201 0.126755 13.8716 0.126755C21.3211 0.126755 27.3578 6.0845 27.3578 13.4366C27.3578 20.7887 21.3211 26.7465 13.8716 26.7465ZM13.8716 1.39436C7.19265 1.39436 1.66972 6.84507 1.66972 13.4366C1.66972 20.0282 7.19265 25.4789 13.8716 25.4789C20.5505 25.4789 26.0734 20.0282 26.0734 13.4366C26.0734 6.84507 20.6789 1.39436 13.8716 1.39436Z" fill="white"/>
<path d="M13.8716 26.7465C9.37615 26.7465 5.90826 20.9155 5.90826 13.4366C5.90826 5.95774 9.37615 0.126755 13.8716 0.126755C18.367 0.126755 21.8349 5.95774 21.8349 13.4366C21.8349 20.9155 18.367 26.7465 13.8716 26.7465ZM13.8716 1.39436C10.1468 1.39436 7.19267 6.84507 7.19267 13.4366C7.19267 20.0282 10.1468 25.4789 13.8716 25.4789C17.5963 25.4789 20.5505 20.0282 20.5505 13.4366C20.5505 6.84507 17.5963 1.39436 13.8716 1.39436Z" fill="white"/>
<path d="M14.5138 0.760559H13.2294V26.1127H14.5138V0.760559Z" fill="white"/>
<path d="M27.3578 12.8028H0.385315V14.0704H27.3578V12.8028Z" fill="white"/>
</g>
<defs>
<clipPath id="clip0_104_32">
<rect width="28" height="27" fill="white"/>
</clipPath>
</defs>
</svg>
