<svg width="37" height="37" viewBox="0 0 37 37" fill="none" xmlns="http://www.w3.org/2000/svg">
<path fill-rule="evenodd" clip-rule="evenodd" d="M12.9422 19.1158C14.5483 20.7404 16.0864 22.3026 17.6857 23.9336C19.8615 26.0099 21.9063 26.4234 22.6412 25.4865L23.8197 23.5617C24.1743 22.984 24.7481 22.568 25.4152 22.4051C26.0823 22.2421 26.7881 22.3456 27.3774 22.6928L32.4811 25.6987C32.773 25.8709 33.0275 26.0978 33.23 26.3665C33.4325 26.6351 33.5791 26.9403 33.6613 27.2645C33.7436 27.5888 33.7599 27.9257 33.7094 28.2562C33.6589 28.5866 33.5425 28.904 33.3669 29.1903L32.1884 31.1151C28.3633 37.3593 16.568 29.8325 13.5006 26.7171L9.95994 23.1209C6.89255 20.0055 -0.365068 8.18076 6.13083 4.64925L8.13543 3.56122C8.73677 3.23445 9.44577 3.15519 10.1066 3.34086C10.7675 3.52652 11.3262 3.96192 11.66 4.55138L14.547 9.65905C14.8801 10.2489 14.9609 10.9443 14.7716 11.5925C14.5823 12.2407 14.1384 12.7887 13.5374 13.116L11.5328 14.2062C10.5547 14.8918 10.9048 16.9084 12.9444 19.1158L12.9422 19.1158Z" fill="#B50E32"/>
</svg>
