<svg width="50" height="50" viewBox="0 0 50 50" fill="none" xmlns="http://www.w3.org/2000/svg">
<g clip-path="url(#clip0_107_134)">
<path d="M40 9.16674L6.04165 22.2917C3.74999 23.1251 3.74999 24.5834 5.62499 25.0001L14.1667 27.7084L17.5 37.7084C17.9167 38.7501 17.7083 39.1667 18.75 39.1667C19.5833 39.1667 20 38.7501 20.4167 38.3334C20.625 38.1251 22.5 36.2501 24.5833 34.1667L33.3333 40.6251C35 41.4584 36.0417 41.0417 36.4583 39.1667L42.2916 11.8751C42.9166 9.58341 41.4583 8.33341 40 9.16674ZM35.625 15.4167L19.375 30.2084L18.75 37.0834L15.4167 27.0834L34.5833 15.0001C35.4167 14.3751 36.25 14.7917 35.625 15.4167Z" fill="white"/>
</g>
<defs>
<clipPath id="clip0_107_134">
<rect width="50" height="50" fill="white"/>
</clipPath>
</defs>
</svg>
