<svg width="40" height="40" viewBox="0 0 40 40" fill="none" xmlns="http://www.w3.org/2000/svg">
<g clip-path="url(#clip0_107_139)">
<path d="M34.4833 3.89509C33.4917 2.98675 29.475 0.0667535 20.53 0.0284201C20.53 0.0284201 9.97499 -0.603247 4.83333 4.11509C1.97333 6.97509 0.971661 11.1634 0.856661 16.3584C0.741661 21.5534 0.613328 31.2901 9.99833 33.9368H10.0067L9.99833 37.9684C9.99833 37.9684 9.93666 39.6018 11.01 39.9301C12.3067 40.3368 13.0733 39.0934 14.315 37.7568C14.995 37.0218 15.9317 35.9451 16.6433 35.1234C17.6433 35.2218 18.8033 35.2768 19.9783 35.2768C23.0233 35.2768 25.9817 34.9018 28.8083 34.1951L28.5583 34.2484C29.855 33.8268 37.1917 32.8884 38.3783 23.1534C39.6183 13.1034 37.7883 6.76342 34.4833 3.89509ZM35.57 22.4201C34.5583 30.5451 28.615 31.0618 27.5217 31.4118C25.135 32.0184 22.395 32.3651 19.5733 32.3651C18.7633 32.3651 17.96 32.3368 17.165 32.2801L17.2717 32.2868C17.2717 32.2868 13.2083 37.1851 11.9433 38.4584C11.53 38.8718 11.075 38.8384 11.0833 38.0134C11.0833 37.4751 11.115 31.3168 11.115 31.3168C3.16999 29.1134 3.62999 20.8201 3.72333 16.4884C3.81666 12.1568 4.62999 8.59675 7.05166 6.20675C11.405 2.26175 20.3667 2.84675 20.3667 2.84675C27.9383 2.87842 31.5633 5.16009 32.4067 5.92509C35.1967 8.31675 36.6183 14.0384 35.57 22.4201ZM24.7183 16.1068V16.1301C24.7183 16.4101 24.4917 16.6368 24.2117 16.6368C23.94 16.6368 23.7183 16.4234 23.7067 16.1551C23.7133 16.0851 23.7183 16.0001 23.7183 15.9184C23.7183 14.5834 22.6367 13.5018 21.3017 13.5018C21.2517 13.5018 21.2017 13.5034 21.1533 13.5068H21.16C20.8917 13.4918 20.68 13.2718 20.68 13.0018C20.68 12.7218 20.9067 12.4951 21.1867 12.4951H21.215H21.2133C21.2467 12.4934 21.2883 12.4934 21.3283 12.4934C23.205 12.4934 24.725 14.0134 24.725 15.8901C24.725 15.9668 24.7217 16.0434 24.7167 16.1184V16.1084L24.7183 16.1068ZM26.3033 16.9918C26.3817 13.6784 24.3117 11.0851 20.3817 10.7951C20.1167 10.7768 19.91 10.5568 19.91 10.2901C19.91 10.0101 20.1367 9.78342 20.4167 9.78342C20.4283 9.78342 20.4417 9.78342 20.4533 9.78509H20.4517H20.48C24.2583 9.78509 27.3233 12.8484 27.3233 16.6284C27.3233 16.7634 27.32 16.8984 27.3117 17.0318L27.3133 17.0134C27.3067 17.2884 27.0833 17.5068 26.8083 17.5068C26.5283 17.5068 26.3017 17.2801 26.3017 17.0001C26.3017 16.9951 26.3017 16.9918 26.3017 16.9868L26.3033 16.9918ZM29.97 18.0401V18.0434C29.97 18.3234 29.7433 18.5501 29.4633 18.5501C29.1833 18.5501 28.96 18.3251 28.9583 18.0484C28.9183 11.6784 24.67 8.21009 19.5217 8.17342C19.2417 8.17342 19.0167 7.94675 19.0167 7.66842C19.0167 7.39009 19.2433 7.16342 19.5217 7.16342C25.2867 7.20342 29.92 11.1818 29.9667 18.0384L29.97 18.0401ZM29.095 25.7034V25.7184C28.2517 27.2034 26.6733 28.8434 25.0483 28.3201L25.0333 28.2968C21.98 27.1568 19.34 25.6668 16.9817 23.8318L17.05 23.8818C15.8117 22.8951 14.7233 21.8068 13.7683 20.6101L13.7367 20.5684C12.8883 19.5051 12.0933 18.3151 11.4 17.0584L11.3333 16.9268C10.5717 15.6834 9.88333 14.2468 9.34499 12.7384L9.29499 12.5751C8.77166 10.9501 10.4033 9.37175 11.8967 8.52842H11.9117C12.1283 8.39009 12.3917 8.30675 12.675 8.30675C13.12 8.30675 13.5167 8.51175 13.7783 8.83009L13.78 8.83342C13.78 8.83342 14.7483 9.98842 15.1633 10.5601C15.5533 11.0918 16.0783 11.9434 16.35 12.4184C16.5067 12.6634 16.5983 12.9634 16.5983 13.2851C16.5983 13.7651 16.3917 14.1968 16.0617 14.4951L16.06 14.4968L15.1233 15.2468C14.865 15.4968 14.705 15.8468 14.705 16.2334C14.705 16.2718 14.7067 16.3084 14.71 16.3451V16.3401C15.675 19.5118 18.1233 21.9601 21.2267 22.9084L21.2967 22.9268C21.3283 22.9301 21.3667 22.9318 21.4033 22.9318C21.79 22.9318 22.14 22.7718 22.39 22.5151L23.14 21.5784C23.44 21.2468 23.8717 21.0401 24.3517 21.0401C24.6733 21.0401 24.9717 21.1334 25.225 21.2934L25.2183 21.2901C26.5733 22.0618 27.745 22.9101 28.8133 23.8718L28.795 23.8551C29.115 24.1118 29.3167 24.5034 29.3167 24.9418C29.3167 25.2234 29.2333 25.4851 29.0883 25.7051L29.0917 25.7001L29.095 25.7034Z" fill="white"/>
</g>
<defs>
<clipPath id="clip0_107_139">
<rect width="40" height="40" fill="white"/>
</clipPath>
</defs>
</svg>
