<svg width="40" height="40" viewBox="0 0 40 40" fill="none" xmlns="http://www.w3.org/2000/svg">
<path d="M31.5213 28.0024H28.7975C27.7663 28.0024 27.4475 27.1824 25.595 25.3049C23.9813 23.7424 23.2675 23.5324 22.8713 23.5324C22.315 23.5324 22.1563 23.6911 22.1563 24.4586V26.9186C22.1563 27.5811 21.945 27.9774 20.1988 27.9774C16.6763 27.7411 13.6488 25.8199 11.8913 23.0199L11.865 22.9761C9.82501 20.4424 8.32126 17.3886 7.57751 14.0486L7.55001 13.9024C7.55001 13.5061 7.70876 13.1349 8.47626 13.1349H11.2C11.8875 13.1349 12.1525 13.4524 12.4188 14.1924C13.7663 18.0824 16.0163 21.4949 16.9425 21.4949C17.2863 21.4949 17.445 21.3361 17.445 20.4636V16.4399C17.3388 14.5874 16.36 14.4299 16.36 13.7686C16.3713 13.4149 16.6613 13.1324 17.0163 13.1324C17.0275 13.1324 17.0375 13.1324 17.0488 13.1336H17.0475H21.3338C21.9163 13.1336 22.1275 13.4511 22.1275 14.1386V19.5636C22.1275 20.1449 22.3925 20.3574 22.5513 20.3574C22.895 20.3574 23.1875 20.1449 23.8213 19.5111C25.1388 17.9024 26.265 16.0624 27.1238 14.0786L27.1813 13.9286C27.3625 13.4749 27.7975 13.1599 28.3063 13.1599C28.33 13.1599 28.3525 13.1611 28.3763 13.1624H28.3725H31.0963C31.9163 13.1624 32.1025 13.5836 31.9163 14.1674C30.8238 16.5736 29.5963 18.6411 28.1738 20.5561L28.2388 20.4636C27.9488 20.9399 27.8425 21.1511 28.2388 21.6824C28.5288 22.0786 29.4825 22.8986 30.1175 23.6399C31.0363 24.5486 31.8063 25.6061 32.3875 26.7736L32.4188 26.8424C32.6838 27.6074 32.2863 28.0049 31.5188 28.0049L31.5213 28.0024ZM25.755 1.25488H14.2463C3.74251 1.25488 1.25626 3.74113 1.25626 14.2449V25.7536C1.25626 36.2574 3.74251 38.7436 14.2463 38.7436H25.755C36.2588 38.7436 38.745 36.2574 38.745 25.7536V14.2449C38.745 3.74113 36.2313 1.25488 25.755 1.25488Z" fill="white"/>
</svg>
