<svg width="40" height="40" viewBox="0 0 40 40" fill="none" xmlns="http://www.w3.org/2000/svg">
<rect width="40" height="40" fill="black"/>
<path d="M33.22 6.70373C29.8575 3.34123 25.2125 1.26123 20.0813 1.26123C9.82 1.26123 1.5 9.57998 1.5 19.8425C1.5 23.2575 2.42125 26.4562 4.0275 29.2062L3.98 29.1187L1.34375 38.7462L11.1925 36.1625C13.7563 37.5862 16.815 38.4237 20.07 38.4237H20.0775C30.3388 38.42 38.655 30.1 38.655 19.8387C38.655 14.71 36.5775 10.0675 33.2188 6.70498L33.22 6.70373ZM20.0775 35.285H20.0712C17.1725 35.285 14.4587 34.485 12.1425 33.0937L12.2125 33.1325L11.6488 32.7987L5.805 34.3325L7.36375 28.6337L6.99625 28.05C5.515 25.7225 4.635 22.8862 4.635 19.8437C4.635 11.3162 11.5488 4.40248 20.0763 4.40248C28.6038 4.40248 35.5175 11.3162 35.5175 19.8437C35.5175 28.3712 28.6063 35.285 20.0775 35.285ZM28.5475 23.7212C28.0837 23.4887 25.8013 22.3675 25.3762 22.2112C24.95 22.0562 24.64 21.98 24.33 22.445C24.0225 22.9087 23.1325 23.9537 22.8612 24.2637C22.5912 24.575 22.3187 24.6125 21.855 24.3812C20.4175 23.7987 19.1825 23.0225 18.1088 22.0662L18.1213 22.0775C17.1225 21.1525 16.2663 20.0937 15.575 18.9262L15.54 18.8612C15.27 18.3975 15.5113 18.1462 15.7425 17.915C15.9513 17.7075 16.2075 17.3725 16.4388 17.1025C16.6213 16.8787 16.7775 16.6225 16.8963 16.3475L16.9037 16.3262C16.9575 16.2175 16.9887 16.0912 16.9887 15.9562C16.9887 15.7925 16.9425 15.64 16.8625 15.51L16.865 15.5137C16.7475 15.2812 15.82 12.9962 15.4338 12.0662C15.0563 11.1612 14.6725 11.285 14.3888 11.27C14.1187 11.2575 13.8088 11.255 13.4987 11.255C13.005 11.2675 12.5662 11.49 12.2638 11.8337L12.2625 11.8362C11.26 12.7875 10.6375 14.1287 10.6375 15.615C10.6375 15.6475 10.6375 15.6812 10.6388 15.7137V15.7087C10.8025 17.5425 11.49 19.1887 12.5475 20.53L12.5325 20.5112C14.5375 23.485 17.21 25.8637 20.3463 27.4662L20.4638 27.52C21.1488 27.83 22.0263 28.1612 22.9237 28.445L23.11 28.4962C23.6625 28.6712 24.2987 28.7725 24.9587 28.7725C25.3375 28.7725 25.71 28.7387 26.07 28.675L26.0312 28.68C27.3675 28.4012 28.4762 27.595 29.1525 26.4937L29.1637 26.4725C29.37 26.015 29.49 25.4812 29.49 24.92C29.49 24.6887 29.47 24.4625 29.4312 24.2425L29.435 24.2662C29.32 24.0725 29.01 23.9575 28.545 23.7237L28.5475 23.7212Z" fill="white"/>
</svg>
